<svg xmlns="http://www.w3.org/2000/svg" xmlns:xlink="http://www.w3.org/1999/xlink" width="39" height="39" viewBox="0 0 39 39">
  <defs>
    <style>
      .cls-1 {
        fill: none;
        stroke: #707070;
      }

      .cls-2 {
        clip-path: url(#clip-path);
      }

      .cls-3 {
        fill: #a3a6b4;
      }
    </style>
    <clipPath id="clip-path">
      <rect id="矩形_3355" data-name="矩形 3355" class="cls-1" width="39" height="39" transform="translate(1767 558)"/>
    </clipPath>
  </defs>
  <g id="蒙版组_185" data-name="蒙版组 185" class="cls-2" transform="translate(-1767 -558)">
    <g id="组_2657" data-name="组 2657" transform="translate(1769.027 564.278)">
      <path id="路径_4045" data-name="路径 4045" class="cls-3" d="M472.742,356.937l2.2,2.1a5.645,5.645,0,0,0,.176-1.339,5.709,5.709,0,0,0-5.7-5.7,5.621,5.621,0,0,0-1.574.249l2.19,2.1A3.421,3.421,0,0,1,472.742,356.937Z" transform="translate(-452.304 -344.017)"/>
      <path id="路径_4046" data-name="路径 4046" class="cls-3" d="M359.28,481.131l-2.188-2.094a3.42,3.42,0,0,1-2.72-2.6l-2.2-2.1a5.626,5.626,0,0,0,7.1,6.8Z" transform="translate(-340.593 -461.992)"/>
      <path id="路径_4047" data-name="路径 4047" class="cls-3" d="M126.742,128.324a1.141,1.141,0,0,0-1.577,1.649L151.4,155.064a1.141,1.141,0,0,0,1.577-1.649Z" transform="translate(-121.502 -128.008)"/>
      <path id="路径_4048" data-name="路径 4048" class="cls-3" d="M49.056,316.185c-6.033,0-11.952-4.048-14.787-10.12-.006-.022-.013-.041-.019-.062a.439.439,0,0,0-.01-.047.368.368,0,0,1-.01-.044V305.9a.658.658,0,0,1,.019-.079c0-.016.013-.03.017-.046a18.268,18.268,0,0,1,4.353-5.892l-1.65-1.577a20.427,20.427,0,0,0-4.8,6.567,1.12,1.12,0,0,0-.081.21.594.594,0,0,0-.023.057.774.774,0,0,0-.058.275c-.029.133-.057.4-.057.4a.977.977,0,0,0,0,.224s.025.48.038.528l.162.486c3.159,6.9,9.952,11.479,16.9,11.479a17.087,17.087,0,0,0,7.239-1.709l-1.777-1.731A14.578,14.578,0,0,1,49.056,316.185Z" transform="translate(-31.946 -292.234)"/>
      <path id="路径_4049" data-name="路径 4049" class="cls-3" d="M333.335,172.549a1.49,1.49,0,0,0-.046-.4,1.9,1.9,0,0,0-.074-.385c-.009-.024-.019-.049-.03-.074a1.186,1.186,0,0,0-.057-.154c-3.156-6.9-9.948-11.539-16.9-11.539a17.011,17.011,0,0,0-7.235,1.678l1.777,1.7a14.586,14.586,0,0,1,5.459-1.095c6.05,0,11.982,4.065,14.782,10.111a.213.213,0,0,0,.009.029.24.24,0,0,0,.009.031c.006.046.011.089.017.113s-.009.046-.014.07c0,.006,0,.011,0,.017s-.01.031-.015.049a18.264,18.264,0,0,1-4.347,5.883l1.651,1.58a20.284,20.284,0,0,0,4.776-6.535,1.2,1.2,0,0,0,.1-.246c.009-.022.017-.042.024-.063a1,1,0,0,0,.062-.3,0,0,0,0,1,0,0A2.32,2.32,0,0,0,333.335,172.549Z" transform="translate(-299.118 -158.86)"/>
    </g>
  </g>
</svg>
