<svg t="1611818392890" class="icon" viewBox="0 0 1092 1024" version="1.1" xmlns="http://www.w3.org/2000/svg" p-id="3138" width="200" height="200"><path d="M978.807467 570.368c-29.422933 15.9744-64.170667 24.234667-103.424 24.507733-64.853333 0-124.7232-28.125867-165.4784-76.5952a214.357333 214.357333 0 0 1-163.362134 76.868267A215.108267 215.108267 0 0 1 382.293333 518.5536 215.995733 215.995733 0 0 1 217.2928 595.285333h-0.273067c-38.434133 0-72.567467-7.7824-101.5808-23.3472A215.4496 215.4496 0 0 1 11.605333 314.026667c0.477867-2.184533 1.092267-4.027733 1.501867-5.5296l99.1232-233.813334c15.223467-45.533867 57.5488-74.410667 111.8208-74.410666h646.826667c55.296 0 99.601067 29.4912 115.438933 76.731733l92.3648 229.034667c0.887467 2.048 1.501867 4.232533 1.911467 6.5536 0 0.682667 0.273067 1.024 0.273066 1.706666 6.690133 20.616533 10.581333 43.4176 10.581334 66.3552a216.405333 216.405333 0 0 1-112.708267 189.781334z m-126.976-296.277333H222.890667a39.185067 39.185067 0 1 0 0 78.370133h628.9408a39.185067 39.185067 0 0 0 0.136533-78.4384z m57.5488 707.037866l-739.805867 0.341334a100.829867 100.829867 0 0 1-100.829867-100.352l-0.273066-210.261334a39.3216 39.3216 0 0 1 47.991466-38.229333l4.642134 1.8432c1.024 0.4096 2.184533 0.682667 2.935466 1.024 34.338133 12.629333 55.569067 19.8656 93.252267 19.8656h0.136533c61.781333 0 119.671467-18.8416 165.0688-57.344 44.8512 38.229333 102.6048 53.725867 164.386134 54.135467a255.044267 255.044267 0 0 0 163.0208-60.6208c45.397333 38.570667 92.842667 50.7904 154.624 54.135466 28.125867 1.570133 65.262933-4.642133 94.4128-16.247466a35.703467 35.703467 0 0 1 11.4688-2.321067c21.845333 0 39.3216 17.408 39.3216 39.253333l0.136533 214.016a100.898133 100.898133 0 0 1-100.488533 100.7616z" fill="#333333" p-id="3139"></path></svg>