<svg xmlns="http://www.w3.org/2000/svg" xmlns:xlink="http://www.w3.org/1999/xlink" width="18" height="18" viewBox="0 0 18 18"><path id="企业" class="cls-3" d="M13.693,18.255a9,9,0,1,0-9-9.215v.433a9,9,0,0,0,9,8.782Zm5.1-3.779H8.438V13.034H9.932V9.573h1.494v3.461H12.92V7.554h1.494V9.573H17.42v1.441H14.412v2.019h4.375v1.441ZM11.65,4.605a3.082,3.082,0,0,1,4.181,0l4.052,3.836-1.1,1.033L14.748,5.654a1.487,1.487,0,0,0-2.013,0L8.607,9.521l-1.1-1.035,4.142-3.88Z" transform="translate(20.306 88.745)"/></svg>