<svg t="1611554771324" class="icon" viewBox="0 0 1024 1024" version="1.1" xmlns="http://www.w3.org/2000/svg" p-id="3793" width="200" height="200"><path d="M936.96 851.456V599.04c-0.512-23.552-19.968-42.496-44.032-42.496s-43.52 18.944-44.032 42.496v217.088h-670.72V599.04c-0.512-23.552-19.968-42.496-44.032-42.496s-43.52 18.944-44.032 42.496v252.416c0 28.672 23.552 52.736 52.736 52.736h741.888c28.672 0 52.224-23.552 52.224-52.736z" p-id="3794"></path><path d="M318.976 299.52c-16.896 16.896-16.896 45.056 0 61.952 16.896 16.896 45.056 16.896 61.952 0l85.504-85.504v314.88c0 26.112 20.992 47.104 47.104 47.104s47.104-20.992 47.104-47.104V275.968l85.504 85.504c16.896 16.896 45.056 16.896 61.952 0s16.896-45.056 0-61.952l-163.84-163.84c-16.896-16.896-45.056-16.896-61.952 0l-163.328 163.84z" p-id="3795"></path></svg>