<svg t="1611296037480" class="icon" viewBox="0 0 1024 1024" version="1.1" xmlns="http://www.w3.org/2000/svg" p-id="1138" width="200" height="200"><path d="M554.16 139.63v626.55c0 25.57-17.05 42.63-42.63 42.63-25.57 0-42.62-17.05-42.62-42.63V152.42L306.95 314.39c-17.05 17.05-42.62 17.05-59.67 0-17.05-17.05-17.05-42.63 0-59.67L456.13 45.86c34.09-34.1 85.24-34.1 119.34 0l208.84 208.85c17.05 17.05 17.05 42.62 0 59.67-17.05 17.05-42.62 17.05-59.67 0L554.16 139.63z m383.59 541.31c0-25.57 17.05-42.63 42.63-42.63 25.57 0 42.62 17.05 42.62 42.63v213.11c0 72.46-55.4 127.87-127.86 127.87h-767.2C55.48 1021.92 0.07 966.51 0.07 894.05V680.94c0-25.57 17.05-42.63 42.63-42.63 25.57 0 42.62 17.05 42.62 42.63v213.11c0 25.57 17.05 42.62 42.63 42.62h767.2c25.57 0 42.62-17.05 42.62-42.62V680.94z m0 0" p-id="1139" fill="#3B86FF"></path></svg>