<svg xmlns="http://www.w3.org/2000/svg" width="14" height="14" viewBox="0 0 14 14">
  <defs>
    <style>
      .cls-1 {
        fill: #3b86ff;
      }
    </style>
  </defs>
  <g id="组_2604" data-name="组 2604" transform="translate(-1.9 -1.4)">
    <path id="路径_4029" data-name="路径 4029" class="cls-1" d="M3.65,10.174A1.754,1.754,0,1,1,5.4,8.42,1.754,1.754,0,0,1,3.65,10.174Zm0-2.63a.876.876,0,1,0,.874.876.877.877,0,0,0-.874-.876ZM14.15,15.4a1.754,1.754,0,1,1,1.75-1.754A1.754,1.754,0,0,1,14.15,15.4Zm0-2.63a.876.876,0,1,0,.874.876A.877.877,0,0,0,14.15,12.77Zm0-7.862A1.754,1.754,0,1,1,15.9,3.154,1.754,1.754,0,0,1,14.15,4.908Zm0-2.63a.876.876,0,1,0,.874.876.877.877,0,0,0-.874-.876ZM8.882,8.87H6.7a.439.439,0,0,1,0-.878H8.881a.439.439,0,0,1,0,.878Z" transform="translate(0 0)"/>
    <path id="路径_4030" data-name="路径 4030" class="cls-1" d="M482.543,106.2h-2.2a.438.438,0,0,1-.439-.439V95.239a.438.438,0,0,1,.439-.439h2.209a.439.439,0,0,1,0,.878h-1.77v9.649h1.766a.439.439,0,1,1,0,.878Z" transform="translate(-471.466 -92.119)"/>
  </g>
</svg>
