<svg t="1611559838832" class="icon" viewBox="0 0 1024 1024" version="1.1" xmlns="http://www.w3.org/2000/svg" p-id="3920" width="200" height="200"><path d="M364.4 723.6c29.8 189.7 96.3 300 147.6 300s117.8-110.3 147.6-300H364.4z m383.9-211.8c0 44.2-2.2 88.7-6.2 132.5h264c11.3-42.3 17.9-86.6 17.9-132.5 0-45.9-6.6-90.2-17.9-132.5h-264c4 43.8 6.2 88.4 6.2 132.5z m-73.1 0c0-47.1-2.3-91.1-6.1-132.5H354.9c-3.8 41.4-6.1 85.4-6.1 132.5 0 47.1 2.3 91.1 6.1 132.5h314.2c3.8-41.4 6.1-85.4 6.1-132.5zM732.9 300H978C914.7 160.4 791 54.6 640.3 15.5c44 68.8 75.5 170.6 92.6 284.5zM291.1 723.6H46c63.3 139.6 186.9 245.5 337.7 284.5-44.1-68.8-75.6-170.5-92.6-284.5z m441.8 0c-17.1 113.9-48.6 215.7-92.6 284.5C791 969.1 914.7 863.3 978 723.6H732.9z m-715-344.3C6.6 421.6 0 465.9 0 511.8c0 45.9 6.6 90.2 17.9 132.5h264c-4-43.8-6.2-88.4-6.2-132.5 0-44.2 2.2-88.7 6.2-132.5h-264zM291.1 300c17.1-113.9 48.5-215.7 92.6-284.5C232.9 54.6 109.3 160.4 46 300h245.1z m368.4 0C629.8 110.3 563.3 0 512 0S394.2 110.3 364.4 300h295.1z" p-id="3921"></path></svg>