<svg t="1611818148460" class="icon" viewBox="0 0 1024 1024" version="1.1" xmlns="http://www.w3.org/2000/svg" p-id="3012" width="200" height="200"><path d="M919.1 945.5H106.2c-12.1-4.8-20.5-13.2-25.3-25.3V507c11-24.6 46.1-42.1 69.1-57.3 34.3-22.6 71.5-48.2 107.9-72.5 17.7-11.8 40.7-32.1 62.4-28.7 43.7 6.9 21.5 77.4 27 131.6 28.6 4.5 46-16.5 64.1-28.7 36.9-24.7 72.1-48 111.3-74.2 17.4-11.7 42.8-32.4 64.1-28.7 42.4 7.5 19.4 84.1 25.3 131.6h65.8c1.1 77-2.3 158.5 1.7 232.7 13.2-152.6 28.5-317.8 42.2-479C725 196.6 723.7 99.5 750.5 87.1c20.2-9.4 113-7.6 128.2 1.7 18.4 11.2 16.3 55.9 18.6 94.4 12.6 217.9 25.5 424.2 40.5 637.5 3.3 49.2 18.7 118.7-18.7 124.8z m-738.7-398v99.5h65.8v-99.5h-65.8z m166.9 0v99.5h65.8v-99.5h-65.8z m165.3 0v99.5h65.8v-99.5h-65.8zM180.4 712.8v99.5h65.8v-99.5h-65.8z m166.9 0v99.5h65.8v-99.5h-65.8z m165.3 0v99.5h65.8v-99.5h-65.8z" fill="#2C2C2C" p-id="3013"></path></svg>