<svg xmlns="http://www.w3.org/2000/svg" xmlns:xlink="http://www.w3.org/1999/xlink" width="39" height="39" viewBox="0 0 39 39">
  <defs>
    <style>
      .cls-1 {
        fill: none;
        stroke: #707070;
      }

      .cls-2 {
        clip-path: url(#clip-path);
      }

      .cls-3 {
        fill: #a3a6b4;
      }
    </style>
    <clipPath id="clip-path">
      <rect id="矩形_3356" data-name="矩形 3356" class="cls-1" width="39" height="39" transform="translate(1848 558)"/>
    </clipPath>
  </defs>
  <g id="蒙版组_184" data-name="蒙版组 184" class="cls-2" transform="translate(-1848 -558)">
    <g id="组_2658" data-name="组 2658" transform="translate(1850.027 565.418)">
      <path id="路径_4050" data-name="路径 4050" class="cls-3" d="M66.181,172.549a1.5,1.5,0,0,0-.046-.4,1.935,1.935,0,0,0-.074-.385c-.009-.024-.019-.049-.03-.074a1.186,1.186,0,0,0-.057-.154c-3.156-6.9-9.948-11.539-16.9-11.539s-13.744,4.634-16.885,11.5a1.142,1.142,0,0,0-.081.209c-.008.019-.016.039-.023.057a.758.758,0,0,0-.058.276c-.03.133-.056.4-.056.4a.987.987,0,0,0,0,.225s.026.23.039.278a1.909,1.909,0,0,0,.04.249h0a1.146,1.146,0,0,0,.071.217,1.323,1.323,0,0,0,.052.144c3.159,6.9,9.951,11.542,16.9,11.542s13.747-4.635,16.866-11.466a1.2,1.2,0,0,0,.1-.246q.014-.033.024-.062a.994.994,0,0,0,.062-.3h0A2.355,2.355,0,0,0,66.181,172.549Zm-2.3.084c0,.006,0,.011,0,.017s-.01.031-.015.049c-2.807,6.05-8.735,10.111-14.783,10.111s-11.952-4.048-14.787-10.121c-.006-.021-.011-.041-.018-.06s-.006-.036-.007-.048,0-.029-.007-.044v-.015q.009-.038.014-.079l.014-.046c2.809-6.054,8.742-10.116,14.79-10.116s11.982,4.066,14.782,10.111c0,.011.006.022.009.03a.316.316,0,0,0,.009.031c.006.046.011.09.017.113S63.88,172.611,63.876,172.634Z" transform="translate(-31.964 -160)"/>
      <path id="路径_4051" data-name="路径 4051" class="cls-3" d="M357.7,352a5.7,5.7,0,1,0,5.7,5.7A5.709,5.709,0,0,0,357.7,352Zm0,9.124a3.422,3.422,0,1,1,3.422-3.422A3.426,3.426,0,0,1,357.7,361.124Z" transform="translate(-340.594 -345.157)"/>
    </g>
  </g>
</svg>
