<svg xmlns="http://www.w3.org/2000/svg" width="12" height="14" viewBox="0 0 12 14">
  <defs>
    <style>
      .cls-1 {
        fill: #3b86ff;
      }
    </style>
  </defs>
  <g id="组_2605" data-name="组 2605" transform="translate(-76.8 -25.6)">
    <path id="路径_4031" data-name="路径 4031" class="cls-1" d="M261.784,29.061H257.37A1.352,1.352,0,0,1,256,27.736v-.81a1.352,1.352,0,0,1,1.37-1.326h4.414a1.352,1.352,0,0,1,1.37,1.326v.81A1.352,1.352,0,0,1,261.784,29.061Zm-4.414-2.769a.644.644,0,0,0-.655.633v.81a.644.644,0,0,0,.655.633h4.414a.644.644,0,0,0,.655-.633v-.81a.644.644,0,0,0-.655-.633Z" transform="translate(-176.777 0)"/>
    <path id="路径_4032" data-name="路径 4032" class="cls-1" d="M86.329,140.616H79.271a2.536,2.536,0,0,1-2.471-2.6V130.6a2.536,2.536,0,0,1,2.471-2.6.372.372,0,0,1,0,.742,1.812,1.812,0,0,0-1.765,1.855v7.421a1.812,1.812,0,0,0,1.765,1.855h7.059a1.812,1.812,0,0,0,1.765-1.855V130.6a1.812,1.812,0,0,0-1.765-1.855.372.372,0,0,1,0-.742,2.536,2.536,0,0,1,2.471,2.6v7.421A2.536,2.536,0,0,1,86.329,140.616Z" transform="translate(0 -101.016)"/>
    <path id="路径_4033" data-name="路径 4033" class="cls-1" d="M559.171,379.594a.348.348,0,0,1-.242-.592l1.384-1.385a1.173,1.173,0,0,0,0-1.658l-1.384-1.384a.346.346,0,0,1,.488-.488l1.384,1.384a1.873,1.873,0,0,1,0,2.641l-1.384,1.384A.346.346,0,0,1,559.171,379.594Z" transform="translate(-475.347 -343.166)"/>
    <path id="路径_4034" data-name="路径 4034" class="cls-1" d="M238.5,554.676h-6.463a.346.346,0,1,1,0-.692H238.5a.346.346,0,1,1,0,.692Z" transform="translate(-152.786 -520.754)"/>
  </g>
</svg>
