<svg t="1611564385547" class="icon" viewBox="0 0 1024 1024" version="1.1" xmlns="http://www.w3.org/2000/svg" p-id="2944" width="200" height="200"><path d="M1024 512a512 512 0 0 1-512 512 508.501333 508.501333 0 0 1-295.936-95.402667l-5.802667 5.802667-60.330666-60.330667-60.330667-60.330666 5.802667-5.802667A508.501333 508.501333 0 0 1 0 512a512 512 0 0 1 512-512c110.506667 0 212.224 35.84 295.936 95.402667l5.802667-5.802667 120.661333 120.661333-5.802667 5.802667A508.501333 508.501333 0 0 1 1024 512z m-512 341.333333a341.333333 341.333333 0 0 0 341.333333-341.333333 337.92 337.92 0 0 0-48.298666-172.373333L339.626667 805.034667A337.92 337.92 0 0 0 512 853.333333z m0-682.666666a341.333333 341.333333 0 0 0-341.333333 341.333333c0 63.146667 18.346667 121.6 48.298666 172.373333L684.373333 218.965333A337.92 337.92 0 0 0 512 170.666667z" fill="#FF7474" p-id="2945"></path></svg>